HIERARCHY
ROOT root
{
	OFFSET 0.000000 0.000000 0.000000
	CHANNELS 6 Xposition Yposition Zposition Zrotation Yrotation Xrotation
	JOINT lhip
	{
		OFFSET 0.058581 -0.082280 -0.017664
		CHANNELS 3 Zrotation Yrotation Xrotation
		JOINT lknee
		{
			OFFSET 0.043451 -0.386469 0.008037
			CHANNELS 3 Zrotation Yrotation Xrotation
			JOINT lankle
			{
				OFFSET -0.014790 -0.426874 -0.037428
				CHANNELS 3 Zrotation Yrotation Xrotation
				JOINT ltoe
				{
					OFFSET 0.041054 -0.060286 0.122042
					CHANNELS 3 Zrotation Yrotation Xrotation
					End Site
					{
						OFFSET 0.000000 0.000000 0.000000
					}
				}
			}
		}
	}
	JOINT rhip
	{
		OFFSET -0.060310 -0.090513 -0.013543
		CHANNELS 3 Zrotation Yrotation Xrotation
		JOINT rknee
		{
			OFFSET -0.043257 -0.383688 -0.004843
			CHANNELS 3 Zrotation Yrotation Xrotation
			JOINT rankle
			{
				OFFSET 0.019056 -0.420046 -0.034562
				CHANNELS 3 Zrotation Yrotation Xrotation
				JOINT rtoe
				{
					OFFSET -0.034840 -0.062106 0.130323
					CHANNELS 3 Zrotation Yrotation Xrotation
					End Site
					{
						OFFSET 0.000000 0.000000 0.000000
					}
				}
			}
		}
	}
	JOINT lowerback
	{
		OFFSET 0.004439 0.124404 -0.038385
		CHANNELS 3 Zrotation Yrotation Xrotation
		JOINT upperback
		{
			OFFSET 0.004488 0.137956 0.026820
			CHANNELS 3 Zrotation Yrotation Xrotation
			JOINT chest
			{
				OFFSET -0.002265 0.056032 0.002855
				CHANNELS 3 Zrotation Yrotation Xrotation
				JOINT lowerneck
				{
					OFFSET -0.013390 0.211636 -0.033468
					CHANNELS 3 Zrotation Yrotation Xrotation
					JOINT upperneck
					{
						OFFSET 0.010113 0.088937 0.050410
						CHANNELS 3 Zrotation Yrotation Xrotation
						End Site
						{
							OFFSET 0.000000 0.000000 0.000000
						}
					}
				}
				JOINT lclavicle
				{
					OFFSET 0.071702 0.114000 -0.018898
					CHANNELS 3 Zrotation Yrotation Xrotation
					JOINT lshoulder
					{
						OFFSET 0.122921 0.045205 -0.019046
						CHANNELS 3 Zrotation Yrotation Xrotation
						JOINT lelbow
						{
							OFFSET 0.255332 -0.015649 -0.022946
							CHANNELS 3 Zrotation Yrotation Xrotation
							JOINT lwrist
							{
								OFFSET 0.265709 0.012698 -0.007375
								CHANNELS 3 Zrotation Yrotation Xrotation
								End Site
								{
									OFFSET 0.000000 0.000000 0.000000
								}
							}
						}
					}
				}
				JOINT rclavicle
				{
					OFFSET -0.082954 0.112472 -0.023707
					CHANNELS 3 Zrotation Yrotation Xrotation
					JOINT rshoulder
					{
						OFFSET -0.113228 0.046853 -0.008472
						CHANNELS 3 Zrotation Yrotation Xrotation
						JOINT relbow
						{
							OFFSET -0.260127 -0.014369 -0.031269
							CHANNELS 3 Zrotation Yrotation Xrotation
							JOINT rwrist
							{
								OFFSET -0.269108 0.006794 -0.006027
								CHANNELS 3 Zrotation Yrotation Xrotation
								End Site
								{
									OFFSET 0.000000 0.000000 0.000000
								}
							}
						}
					}
				}
			}
		}
	}
}
MOTION
Frames: 8
Frame Time: 0.033333
-0.131688 0.624062 1.003599 -44.855511 6.619438 92.212250 6.510662 2.044926 -7.610070 -4.854758 -2.329089 11.342991 5.182528 5.315516 -14.186633 0.000000 -0.000000 0.000000 -4.985752 -0.454675 -17.905513 -2.319556 5.023271 18.503391 8.117448 -2.643270 -0.761009 0.000000 -0.000000 0.000000 -5.215814 2.209854 19.421386 -4.640066 -2.646765 7.769002 -3.051567 0.948021 1.373574 -9.796592 6.938172 5.141086 5.636189 6.835163 18.864679 -27.765006 -18.563284 -3.057404 -57.551666 -26.506792 18.605026 9.481218 -48.067960 -37.114874 37.262986 24.594002 -33.169078 24.793536 11.472846 4.059631 48.553823 14.941125 18.986168 -123.861854 58.228749 -118.717942 -23.258799 8.094532 -25.315790 
-0.139108 0.623309 1.000999 -45.500417 6.269670 92.050427 6.579682 1.837686 -7.845613 -5.280866 -1.922487 12.890814 5.698543 6.263261 -15.314546 0.000000 -0.000000 0.000000 -5.787190 -1.060151 -18.295200 -2.424882 4.471651 16.547374 8.841875 -3.380354 3.197082 0.000000 -0.000000 0.000000 -5.079238 2.637356 19.683253 -4.620197 -2.271441 7.712353 -2.849902 1.119953 1.590210 -10.077418 6.292867 4.724692 5.836086 6.586686 18.882320 -27.789635 -17.620569 -2.950689 -57.104751 -26.043304 17.356372 9.149214 -46.784680 -38.716980 39.553004 24.972817 -31.540387 25.138172 11.431791 4.152847 50.171496 14.365664 20.498011 -124.740639 59.765878 -119.605878 -23.983681 8.384107 -24.124585 
-0.147753 0.623349 0.998086 -46.439283 5.966056 91.777890 6.567433 2.155408 -7.905661 -5.399242 -1.495820 14.395775 6.002580 7.036273 -16.509661 0.000000 -0.000000 0.000000 -6.045693 -1.636714 -18.520133 -2.596373 4.090384 14.641554 9.797774 -3.152223 4.718481 0.000000 -0.000000 0.000000 -5.045753 2.924816 20.065003 -4.702213 -2.192513 7.420080 -2.805367 1.590747 1.910877 -9.986871 6.365638 4.140672 5.805488 6.066241 19.033803 -27.416546 -16.694597 -3.097155 -56.490677 -25.522608 15.815295 7.939259 -44.919453 -38.624154 38.003735 24.346604 -31.737631 25.642023 11.562970 4.544187 51.682519 14.067143 21.956930 -127.676468 61.607059 -121.332717 -23.987281 9.130036 -22.411516 
-0.158499 0.624110 0.995003 -47.578375 5.685036 91.518631 6.765494 2.684760 -7.877491 -5.609210 -1.180904 15.983514 6.033204 7.842860 -17.651557 0.000000 -0.000000 0.000000 -5.949861 -2.013949 -18.480054 -2.303589 4.077286 12.784643 10.695039 -2.050316 4.773401 0.000000 -0.000000 0.000000 -5.216273 3.550352 19.968007 -4.684277 -2.007128 7.636747 -2.782767 1.779060 1.968891 -9.493793 6.946810 4.030517 5.842970 5.190226 18.895320 -27.215353 -16.697249 -2.856457 -54.675508 -25.526222 13.902521 5.314283 -41.684273 -38.388825 36.298948 23.604693 -31.536677 26.245043 11.633181 4.753734 52.750215 13.756517 23.177532 -132.014487 63.909969 -123.736536 -23.751166 9.911592 -20.747401 
-0.170120 0.625909 0.992436 -48.657891 5.391540 91.101200 7.131839 2.697412 -7.522892 -5.730217 -0.575718 17.355311 5.782597 8.479229 -18.747567 0.000000 -0.000000 0.000000 -5.556259 -2.452670 -18.512780 -1.728754 3.705024 11.766915 13.040727 -0.663874 7.218641 0.000000 -0.000000 0.000000 -5.747130 4.116191 20.114899 -4.645420 -2.296050 7.961938 -2.633958 1.865426 1.623573 -9.123868 7.474828 4.113816 6.141532 4.922696 18.818596 -27.053502 -17.459130 -2.802225 -52.426666 -25.536958 11.928219 2.271020 -37.319833 -39.071785 33.732484 22.181528 -32.217035 26.616959 12.384477 5.088548 53.572475 13.464492 24.525488 -136.151633 65.657305 -125.861821 -22.633950 11.120234 -17.716396 
-0.182203 0.628792 0.989210 -49.157517 5.227513 90.995417 7.569857 2.768396 -7.658620 -5.694640 -0.423254 18.904103 5.630985 8.918158 -19.807470 0.000000 -0.000000 0.000000 -4.547778 -2.154218 -18.817658 -1.496535 4.284283 11.922463 12.038758 -0.847034 6.731619 0.000000 -0.000000 0.000000 -6.158518 4.259305 19.994514 -4.581308 -2.868501 8.116664 -2.591535 1.376385 1.591360 -8.542751 8.267581 3.872752 6.106685 4.840529 19.215506 -26.868785 -18.824971 -2.270725 -50.620059 -25.864014 10.268417 0.505791 -33.344919 -39.682923 30.663861 20.584059 -33.923889 26.351082 13.262353 5.283620 54.495188 13.622330 25.953415 -140.396175 66.911310 -127.635873 -22.935653 11.589642 -15.938971 
-0.196129 0.631406 0.986700 -49.891051 4.950884 90.516329 7.815205 3.106852 -6.853472 -5.413882 -0.450742 19.708487 5.402629 9.277190 -20.650838 0.000000 -0.000000 0.000000 -3.453038 -1.950627 -18.780218 -2.126277 3.268418 13.515936 10.445148 -1.657958 4.288001 0.000000 -0.000000 0.000000 -6.688546 4.252555 20.218352 -4.941866 -3.195801 8.368981 -2.629534 0.831361 1.185341 -8.465872 8.923225 3.782725 6.578513 5.066111 19.087468 -26.756905 -20.141275 -1.136773 -50.133258 -25.721627 9.283866 1.283055 -32.567421 -40.648513 28.646759 19.462223 -36.148061 26.185254 14.141054 5.415727 55.625866 13.263773 26.063037 -142.075366 67.027669 -127.866797 -22.877311 12.149066 -15.055420 
-0.209976 0.634416 0.985207 -50.444763 4.834903 90.133441 8.304232 3.133369 -5.863316 -5.079065 -0.280071 19.911268 4.770331 9.404557 -21.092836 0.000000 -0.000000 0.000000 -2.757379 -1.019186 -18.067539 -2.387698 2.771405 14.264696 9.624937 -1.628447 2.147086 0.000000 -0.000000 0.000000 -7.202921 3.776023 20.339791 -5.195349 -3.313234 8.845144 -2.677371 0.520242 0.981303 -8.338738 9.705444 3.301906 6.705999 5.459462 18.920602 -27.390622 -20.736963 -0.752047 -50.226580 -26.498421 9.182699 2.120036 -32.931484 -40.011405 26.692109 18.713874 -37.733339 25.746303 14.059442 5.143042 55.991347 13.617049 25.489777 -141.501816 66.292371 -126.287005 -22.997362 11.992605 -15.794909 
